<svg width="24" height="24" viewBox="0 0 24 24" fill="none" xmlns="http://www.w3.org/2000/svg">
<g clip-path="url(#clip0_928_1913)">
<path d="M3.34 17.0001C2.91727 16.2691 2.58866 15.4875 2.362 14.6741C2.85531 14.4232 3.26959 14.0407 3.55903 13.569C3.84846 13.0972 4.00176 12.5546 4.00197 12.0012C4.00218 11.4477 3.84928 10.905 3.5602 10.4331C3.27112 9.96112 2.85712 9.57834 2.364 9.32707C2.81604 7.69255 3.67673 6.20002 4.865 4.99007C5.32909 5.29179 5.86762 5.45923 6.42098 5.47385C6.97434 5.48847 7.52095 5.3497 8.00033 5.0729C8.47971 4.7961 8.87315 4.39207 9.13713 3.90551C9.4011 3.41895 9.52531 2.86884 9.496 2.31607C11.1381 1.89169 12.8612 1.89238 14.503 2.31807C14.474 2.87083 14.5984 3.42086 14.8626 3.90728C15.1268 4.39369 15.5204 4.79754 15.9998 5.07413C16.4793 5.35071 17.0259 5.48925 17.5793 5.47442C18.1326 5.45958 18.671 5.29195 19.135 4.99007C19.714 5.58007 20.228 6.25107 20.66 7.00007C21.093 7.74907 21.417 8.53007 21.638 9.32607C21.1447 9.57697 20.7304 9.95944 20.441 10.4312C20.1515 10.9029 19.9982 11.4455 19.998 11.999C19.9978 12.5524 20.1507 13.0951 20.4398 13.5671C20.7289 14.039 21.1429 14.4218 21.636 14.6731C21.184 16.3076 20.3233 17.8001 19.135 19.0101C18.6709 18.7083 18.1324 18.5409 17.579 18.5263C17.0257 18.5117 16.479 18.6504 15.9997 18.9272C15.5203 19.204 15.1268 19.6081 14.8629 20.0946C14.5989 20.5812 14.4747 21.1313 14.504 21.6841C12.8619 22.1084 11.1388 22.1078 9.497 21.6821C9.52605 21.1293 9.4016 20.5793 9.13742 20.0929C8.87324 19.6064 8.47964 19.2026 8.00017 18.926C7.5207 18.6494 6.97405 18.5109 6.42073 18.5257C5.8674 18.5406 5.32896 18.7082 4.865 19.0101C4.27399 18.407 3.76159 17.7317 3.34 17.0001V17.0001ZM9 17.1961C10.0656 17.8107 10.8668 18.7971 11.25 19.9661C11.749 20.0131 12.25 20.0141 12.749 19.9671C13.1324 18.7979 13.934 17.8115 15 17.1971C16.0652 16.5808 17.3205 16.3795 18.525 16.6321C18.815 16.2241 19.065 15.7891 19.273 15.3341C18.4524 14.4175 17.9991 13.2303 18 12.0001C18 10.7401 18.47 9.56307 19.273 8.66607C19.0635 8.21122 18.8125 7.7767 18.523 7.36807C17.3193 7.62038 16.0648 7.41954 15 6.80407C13.9344 6.18944 13.1332 5.20305 12.75 4.03407C12.251 3.98707 11.75 3.98607 11.251 4.03307C10.8676 5.20221 10.066 6.18863 9 6.80307C7.93478 7.41938 6.67948 7.62059 5.475 7.36807C5.18556 7.77635 4.93513 8.21093 4.727 8.66607C5.54757 9.58263 6.00088 10.7699 6 12.0001C6 13.2601 5.53 14.4371 4.727 15.3341C4.93647 15.7889 5.18754 16.2234 5.477 16.6321C6.68072 16.3798 7.93521 16.5806 9 17.1961ZM12 15.0001C11.2044 15.0001 10.4413 14.684 9.87868 14.1214C9.31607 13.5588 9 12.7957 9 12.0001C9 11.2044 9.31607 10.4414 9.87868 9.87875C10.4413 9.31614 11.2044 9.00007 12 9.00007C12.7956 9.00007 13.5587 9.31614 14.1213 9.87875C14.6839 10.4414 15 11.2044 15 12.0001C15 12.7957 14.6839 13.5588 14.1213 14.1214C13.5587 14.684 12.7956 15.0001 12 15.0001ZM12 13.0001C12.2652 13.0001 12.5196 12.8947 12.7071 12.7072C12.8946 12.5196 13 12.2653 13 12.0001C13 11.7349 12.8946 11.4805 12.7071 11.293C12.5196 11.1054 12.2652 11.0001 12 11.0001C11.7348 11.0001 11.4804 11.1054 11.2929 11.293C11.1054 11.4805 11 11.7349 11 12.0001C11 12.2653 11.1054 12.5196 11.2929 12.7072C11.4804 12.8947 11.7348 13.0001 12 13.0001V13.0001Z" fill="white"/>
</g>
<defs>
<clipPath id="clip0_928_1913">
<rect width="24" height="24" fill="white"/>
</clipPath>
</defs>
</svg>
